<mxfile host="app.diagrams.net" agent="Mozilla/5.0 (X11; Linux x86_64; rv:128.0) Gecko/20100101 Firefox/128.0" version="26.0.13">
  <diagram id="k4pNC1rw3EwO7Iqltvwy" name="Page-1">
    <mxGraphModel dx="2074" dy="1088" grid="1" gridSize="10" guides="1" tooltips="1" connect="1" arrows="1" fold="1" page="1" pageScale="1" pageWidth="827" pageHeight="1169" math="0" shadow="0">
      <root>
        <mxCell id="0" />
        <mxCell id="1" parent="0" />
        <mxCell id="ECoGbR0762pp9iFnCjb--5" value="" style="outlineConnect=0;dashed=0;verticalLabelPosition=bottom;verticalAlign=top;align=center;html=1;shape=mxgraph.aws3.internet_3;fillColor=#dae8fc;strokeColor=#6c8ebf;" parent="1" vertex="1">
          <mxGeometry x="190" y="390" width="68.88" height="44" as="geometry" />
        </mxCell>
        <mxCell id="_etOdeRrxOBRMlxFL1JE-13" value="" style="edgeStyle=none;rounded=0;orthogonalLoop=1;jettySize=auto;html=1;endArrow=none;endFill=0;startArrow=none;" parent="1" source="ECoGbR0762pp9iFnCjb--5" target="ECoGbR0762pp9iFnCjb--2" edge="1">
          <mxGeometry relative="1" as="geometry">
            <mxPoint x="450" y="270" as="sourcePoint" />
            <mxPoint x="450" y="370" as="targetPoint" />
          </mxGeometry>
        </mxCell>
        <mxCell id="_etOdeRrxOBRMlxFL1JE-19" value="Internet" style="text;html=1;resizable=0;autosize=1;align=center;verticalAlign=middle;points=[];fillColor=none;strokeColor=none;rounded=0;" parent="1" vertex="1">
          <mxGeometry x="190" y="414" width="60" height="20" as="geometry" />
        </mxCell>
        <mxCell id="ECoGbR0762pp9iFnCjb--3" value="" style="edgeStyle=orthogonalEdgeStyle;rounded=0;orthogonalLoop=1;jettySize=auto;html=1;endArrow=none;endFill=0;" parent="1" source="ECoGbR0762pp9iFnCjb--2" target="mO2-hgsHOFpzF077Ll3o-1" edge="1">
          <mxGeometry relative="1" as="geometry">
            <mxPoint x="550" y="411" as="targetPoint" />
          </mxGeometry>
        </mxCell>
        <mxCell id="ECoGbR0762pp9iFnCjb--2" value="router/nat" style="sketch=0;pointerEvents=1;shadow=0;dashed=0;html=1;strokeColor=#666666;labelPosition=center;verticalLabelPosition=bottom;verticalAlign=top;outlineConnect=0;align=center;shape=mxgraph.office.servers.physical_host;fillColor=#f5f5f5;fontColor=#333333;" parent="1" vertex="1">
          <mxGeometry x="393" y="378" width="41.75" height="68" as="geometry" />
        </mxCell>
        <mxCell id="ECoGbR0762pp9iFnCjb--10" value="&lt;h2&gt;&lt;font size=&quot;1&quot;&gt;&lt;b style=&quot;font-size: 18px&quot;&gt;ConfiguraciÃ³n router/nat&lt;/b&gt;&lt;/font&gt;&lt;/h2&gt;" style="text;html=1;resizable=0;autosize=1;align=center;verticalAlign=middle;points=[];fillColor=none;strokeColor=none;rounded=0;" parent="1" vertex="1">
          <mxGeometry x="299" y="460" width="230" height="60" as="geometry" />
        </mxCell>
        <mxCell id="mO2-hgsHOFpzF077Ll3o-1" value="" style="sketch=0;pointerEvents=1;shadow=0;dashed=0;html=1;strokeColor=#666666;labelPosition=center;verticalLabelPosition=bottom;verticalAlign=top;outlineConnect=0;align=center;shape=mxgraph.office.servers.physical_host;fillColor=#f5f5f5;fontColor=#333333;" vertex="1" parent="1">
          <mxGeometry x="610" y="378" width="41.75" height="68" as="geometry" />
        </mxCell>
        <mxCell id="mO2-hgsHOFpzF077Ll3o-2" value="&lt;font style=&quot;font-size: 14px;&quot;&gt;172.22.0.3&lt;/font&gt;" style="text;strokeColor=none;align=center;fillColor=none;html=1;verticalAlign=middle;whiteSpace=wrap;rounded=0;" vertex="1" parent="1">
          <mxGeometry x="545" y="409" width="60" height="30" as="geometry" />
        </mxCell>
        <mxCell id="mO2-hgsHOFpzF077Ll3o-3" value="&lt;font style=&quot;font-size: 14px;&quot;&gt;172.22.0.2&lt;/font&gt;" style="text;strokeColor=none;align=center;fillColor=none;html=1;verticalAlign=middle;whiteSpace=wrap;rounded=0;" vertex="1" parent="1">
          <mxGeometry x="440" y="409" width="60" height="30" as="geometry" />
        </mxCell>
        <mxCell id="mO2-hgsHOFpzF077Ll3o-4" value="&lt;b&gt;&lt;font style=&quot;font-size: 14px;&quot;&gt;red-muy-aislada&lt;/font&gt;&lt;/b&gt;" style="text;strokeColor=none;align=center;fillColor=none;html=1;verticalAlign=middle;whiteSpace=wrap;rounded=0;" vertex="1" parent="1">
          <mxGeometry x="460" y="384" width="140" height="30" as="geometry" />
        </mxCell>
        <mxCell id="mO2-hgsHOFpzF077Ll3o-5" value="&lt;font style=&quot;font-size: 14px;&quot;&gt;192.168.102.X&lt;/font&gt;" style="text;strokeColor=none;align=center;fillColor=none;html=1;verticalAlign=middle;whiteSpace=wrap;rounded=0;" vertex="1" parent="1">
          <mxGeometry x="316" y="405" width="60" height="30" as="geometry" />
        </mxCell>
        <mxCell id="mO2-hgsHOFpzF077Ll3o-6" value="&lt;font style=&quot;font-size: 14px;&quot;&gt;&lt;b&gt;red-nat&lt;/b&gt;&lt;/font&gt;" style="text;strokeColor=none;align=center;fillColor=none;html=1;verticalAlign=middle;whiteSpace=wrap;rounded=0;" vertex="1" parent="1">
          <mxGeometry x="290" y="385" width="60" height="30" as="geometry" />
        </mxCell>
      </root>
    </mxGraphModel>
  </diagram>
</mxfile>
